<svg width="821" height="1026" viewBox="0 0 821 1026" fill="none" xmlns="http://www.w3.org/2000/svg">
<path d="M807 399.5C807 620.138 628.138 799 407.5 799C186.862 799 8 620.138 8 399.5C8 178.862 186.862 0 407.5 0C628.138 0 807 178.862 807 399.5ZM21.1619 399.5C21.1619 612.869 194.131 785.838 407.5 785.838C620.869 785.838 793.838 612.869 793.838 399.5C793.838 186.131 620.869 13.1619 407.5 13.1619C194.131 13.1619 21.1619 186.131 21.1619 399.5Z" fill="#625597"/>
<path d="M67.5961 800L410.5 167.732L753.404 800H67.5961Z" stroke="#625597" stroke-width="15"/>
</svg>
